<?xml version="1.0" encoding="UTF-8"?>
<svg version="1.1" xmlns="http://www.w3.org/2000/svg" width="1024" height="1024">
<path d="M0 0 C337.92 0 675.84 0 1024 0 C1024 337.92 1024 675.84 1024 1024 C686.08 1024 348.16 1024 0 1024 C0 686.08 0 348.16 0 0 Z " fill="#02111C" transform="translate(0,0)"/>
<path d="M0 0 C15.14605206 13.30119459 25.28068218 31.66273114 27.1875 51.875 C27.25195312 52.52082031 27.31640625 53.16664063 27.3828125 53.83203125 C27.69841992 59.33412066 26.49009611 62.44256837 23.1875 66.875 C19.2955427 69.61706083 15.81998082 70.42323533 11.14453125 70.2265625 C6.83651485 69.45266734 4.05413661 67.06972048 1.546875 63.61328125 C-0.02442085 60.44811345 -0.17655135 58.26689441 -0.25 54.75 C-0.99490172 42.26938251 -6.42160478 30.65388031 -15.5625 22 C-26.4147705 13.2596357 -41.08874658 9.44309607 -54.8125 10.875 C-63.38172347 12.63661737 -70.64662226 15.90596069 -77.8125 20.875 C-79.3903125 21.9578125 -79.3903125 21.9578125 -81 23.0625 C-89.90888362 31.97138362 -95.14094045 43.28746443 -95.25 55.875 C-95.04815816 68.72810793 -90.96571344 81.4416012 -82.0390625 90.95703125 C-75.64357886 96.4661233 -67.68796944 99.9728285 -60.15234375 103.6484375 C-59.1682251 104.13078857 -58.18410645 104.61313965 -57.17016602 105.11010742 C-55.21216852 106.06354338 -53.24792079 107.00427011 -51.27709961 107.9309082 C-45.56147809 110.69319679 -41.73715477 113.02569046 -38.8125 118.875 C-38.8351389 120.39263 -38.92631158 121.90949302 -39.05151367 123.42211914 C-42.21440748 149.00921916 -42.21440748 149.00921916 -35.48876953 172.62890625 C-29.71528694 178.62566822 -21.45339072 181.44465797 -13.80810547 184.27294922 C-7.77668765 186.57459162 -2.41148406 190.01711528 3.06460571 193.39352417 C6.06946784 195.23003422 9.1188139 196.98940232 12.1640625 198.7578125 C26.29574104 207.01351774 40.29083514 215.49924044 54.27124023 224.0078125 C54.84365448 224.35618164 55.41606873 224.70455078 56.00582886 225.06347656 C57.16955198 225.77173239 58.33322785 226.48006585 59.49685669 227.18847656 C69.69261042 233.39272453 79.94559127 239.49706734 90.21652222 245.5758667 C100.37616947 251.5903093 110.48867623 257.67709185 120.5703125 263.82128906 C128.07723508 268.39529402 135.60862473 272.92126183 143.1875 277.375 C151.35799928 282.17640696 159.47014726 287.06816058 167.5625 292 C177.72946296 298.19593311 187.94164151 304.31047365 198.1875 310.375 C218.3346429 322.30469113 238.32496026 334.4793235 258.24829102 346.77929688 C265.98635993 351.54623325 273.76596624 356.23965281 281.56546021 360.90518188 C291.10513421 366.61219167 300.64416828 372.32060047 310.125 378.125 C310.95233643 378.62539795 311.77967285 379.1257959 312.63208008 379.64135742 C323.67758891 386.44437359 332.37960721 394.92177913 336.52734375 407.5625 C338.98871674 419.91305798 338.40573561 433.48619085 331.64453125 444.35546875 C324.50004965 454.11577885 315.23045696 461.36896061 303.1875 463.875 C301.50871891 463.96523471 299.82676462 464.00312074 298.14556122 464.00495183 C297.12048712 464.00848025 296.09541302 464.01200867 295.03927606 464.01564401 C293.91252468 464.01444624 292.7857733 464.01324846 291.62487793 464.01201439 C290.42342402 464.01466622 289.22197011 464.01731804 287.98410851 464.02005023 C284.63308123 464.02641373 281.2821051 464.0282795 277.93107529 464.028273 C274.29138603 464.02934157 270.65170674 464.03613116 267.01202297 464.0421797 C259.78580462 464.05326009 252.55959114 464.05890513 245.33336579 464.06288858 C236.68064223 464.06789557 228.02792811 464.07862276 219.37521013 464.08937032 C198.45911123 464.11500765 177.54300867 464.1300373 156.62689858 464.14288078 C149.69973532 464.14713483 142.77257232 464.15170054 135.84540939 464.1564641 C99.02096035 464.18172354 62.19651086 464.20377382 25.37205505 464.21619225 C16.83901976 464.21911362 8.30598448 464.22208113 -0.22705078 464.22509766 C-1.28718328 464.22546857 -2.34731578 464.22583947 -3.43957351 464.22622162 C-37.81377555 464.2383779 -72.18792639 464.26932295 -106.56210437 464.31101918 C-141.89448824 464.35379962 -177.22684506 464.38043234 -212.55925553 464.38566696 C-217.54894382 464.38640742 -222.53863207 464.3873181 -227.52832031 464.38832474 C-228.51034523 464.38851535 -229.49237014 464.38870597 -230.50415339 464.38890236 C-246.31247539 464.39241684 -262.12073331 464.41271891 -277.92903178 464.43912137 C-293.81779235 464.46525816 -309.70647883 464.47299674 -325.59525782 464.46202008 C-335.03543758 464.45604092 -344.47536612 464.4639673 -353.91550789 464.49185092 C-360.22323289 464.50910382 -366.53078658 464.50815308 -372.83851524 464.49248323 C-376.43143025 464.48407311 -380.02386587 464.48348249 -383.61673641 464.50509469 C-387.49242905 464.52822038 -391.36742375 464.51242198 -395.2431488 464.49303246 C-396.35117086 464.50588168 -397.45919291 464.5187309 -398.60079139 464.53196949 C-410.21141988 464.40429071 -420.51197644 460.03640864 -428.8125 451.875 C-438.12400502 441.51781795 -441.63311446 430.36531478 -441.19140625 416.515625 C-439.82614244 403.39783255 -433.39314012 393.57867473 -423.62084961 385.05664062 C-418.01620751 380.70272583 -411.82552911 377.28824331 -405.6875 373.75 C-404.248964 372.9102328 -402.81114672 372.06923332 -401.37402344 371.22705078 C-399.21140681 369.95974722 -397.04849631 368.69300368 -394.88342285 367.42990112 C-388.90066706 363.93874825 -382.9700087 360.3670806 -377.0625 356.75 C-376.16474854 356.20150391 -375.26699707 355.65300781 -374.34204102 355.08789062 C-372.49193539 353.95744376 -370.64208592 352.82657756 -368.79248047 351.6953125 C-363.07610774 348.20348266 -357.35062709 344.72662664 -351.625 341.25 C-350.7270723 340.70472656 -350.7270723 340.70472656 -349.81100464 340.1484375 C-339.167337 333.68625579 -328.49733278 327.26886559 -317.8125 320.875 C-305.51417477 313.51385007 -293.2271389 306.13597672 -280.98510742 298.68148804 C-269.63076806 291.76795429 -258.22506961 284.94664149 -246.78549194 278.17514038 C-234.85159284 271.10906092 -222.98601919 263.93584927 -211.140625 256.72265625 C-205.71140423 253.41731423 -200.26726184 250.13797611 -194.8125 246.875 C-186.96095752 242.17574967 -179.13308623 237.43803296 -171.3125 232.6875 C-170.72048798 232.3280127 -170.12847595 231.96852539 -169.51852417 231.59814453 C-163.52622126 227.95934809 -157.5356248 224.31781181 -151.55194092 220.66485596 C-138.56460875 212.73726234 -125.5255994 204.91640336 -112.37741089 197.25820923 C-102.22232117 191.33952478 -92.18265254 185.25014518 -82.19677734 179.05053711 C-67.41548802 169.875 -67.41548802 169.875 -64.8125 169.875 C-65.1425 157.005 -65.4725 144.135 -65.8125 130.875 C-70.1746875 128.895 -70.1746875 128.895 -74.625 126.875 C-82.403775 123.25639474 -89.1577965 119.3271869 -95.8125 113.875 C-96.66328125 113.21242188 -97.5140625 112.54984375 -98.390625 111.8671875 C-107.71909758 104.19376651 -113.95172043 93.7999186 -118.1875 82.625 C-118.43830322 81.96371094 -118.68910645 81.30242187 -118.94750977 80.62109375 C-125.71085987 61.81280841 -122.60894841 41.04590876 -114.375 23.375 C-111.95817892 18.85955998 -109.05230834 14.83130442 -105.8125 10.875 C-104.66587891 9.42673828 -104.66587891 9.42673828 -103.49609375 7.94921875 C-77.62454833 -22.92100647 -30.50550615 -23.30221452 0 0 Z " fill="#FCFCFC" transform="translate(563.8125,280.125)"/>
<path d="M0 0 C4.26780583 1.28332898 7.80109516 2.90243042 11.5859375 5.24609375 C12.66544678 5.90899414 13.74495605 6.57189453 14.85717773 7.25488281 C15.42878632 7.60957642 16.0003949 7.96427002 16.58932495 8.32971191 C19.69630551 10.25720485 22.81565727 12.16451838 25.93359375 14.07421875 C26.58777786 14.47557037 27.24196198 14.876922 27.91596985 15.29043579 C34.69727474 19.44347843 41.53841287 23.49356164 48.3850708 27.53762817 C58.63072204 33.58974384 68.82637866 39.70136986 78.91625977 46.01098633 C87.51889261 51.36797722 96.24442398 56.51456725 104.96594238 61.67459106 C114.69826541 67.4333815 124.39337534 73.24667442 134.04248047 79.14428711 C140.011096 82.79213112 145.99717028 86.40875117 152 90 C162.06493301 96.02452261 172.08374134 102.12370624 182.09863281 108.23095703 C186.79361585 111.09361667 191.4904511 113.95323165 196.1875 116.8125 C197.12674316 117.38427979 198.06598633 117.95605957 199.03369141 118.54516602 C205.99435069 122.78160561 212.95820099 127.01277703 219.9236145 131.24139404 C221.68297836 132.30975427 223.44198904 133.37869387 225.20092773 134.44775391 C230.72284087 137.80294292 236.24796367 141.15247362 241.7849884 144.48268127 C244.32970252 146.01365385 246.87251612 147.54776749 249.41519165 149.0821228 C250.6197938 149.80783334 251.8253124 150.53202529 253.03182983 151.25454712 C272.90000317 163.15417367 272.90000317 163.15417367 276 170 C276.8067356 176.20351859 276.71273524 181.75096053 273 187 C267.62910997 191.95774465 263.64131624 193.29896635 256.41752243 193.24609566 C255.6463854 193.24840335 254.87524837 193.25071103 254.08074355 193.25308865 C251.48153866 193.25840723 248.88257862 193.24938919 246.28338623 193.24050903 C244.40727405 193.24138072 242.53116211 193.24313102 240.65505147 193.24568737 C235.48774338 193.25017214 230.32051776 193.2421417 225.15322018 193.23213124 C219.58541295 193.2235153 214.01761059 193.22641559 208.44979858 193.22793579 C198.7992314 193.22898582 189.1486912 193.22269691 179.4981308 193.21146011 C165.54494644 193.19522403 151.59177516 193.18999905 137.63858238 193.18748413 C115.00188539 193.18310405 92.36520397 193.16980362 69.72851562 193.15087891 C47.73567784 193.13251367 25.74284391 193.11834466 3.75 193.10986328 C3.07222472 193.10960023 2.39444944 193.10933718 1.69613552 193.10906615 C-5.11028954 193.10642914 -11.91671463 193.10387751 -18.72313974 193.10138843 C-75.81543658 193.08050209 -132.90771756 193.0452057 -190 193 C-186.86032635 189.28988354 -183.73428777 185.60746237 -180.28846741 182.17494202 C-179.28157112 181.16815147 -179.28157112 181.16815147 -178.2543335 180.14102173 C-177.53884338 179.43069794 -176.82335327 178.72037415 -176.08618164 177.98852539 C-175.31626389 177.2200679 -174.54634613 176.45161041 -173.75309753 175.65986633 C-172.09114827 174.00170452 -170.42804533 172.34469836 -168.76390266 170.68873787 C-166.1253163 168.06298576 -163.48992818 165.4340608 -160.85533142 162.80430603 C-154.7862423 156.74757952 -148.71250908 150.69551797 -142.63851166 144.6437149 C-136.62488901 138.65195798 -130.61328485 132.65818921 -124.60507011 126.66100883 C-122.01757873 124.07996676 -119.42707705 121.50197269 -116.83644104 118.92408752 C-115.23854919 117.32983086 -113.64079906 115.73543213 -112.04321289 114.14086914 C-110.97301407 113.0784198 -110.97301407 113.0784198 -109.88119507 111.99450684 C-106.65102286 108.76467244 -103.52197905 105.49971945 -100.53916931 102.03916931 C-96.6733829 97.5606941 -92.52578573 93.40024453 -88.33007812 89.23242188 C-87.07256996 87.97710411 -87.07256996 87.97710411 -85.78965759 86.69642639 C-83.98148901 84.89204311 -82.17216677 83.0888153 -80.36180115 81.28663635 C-77.49209764 78.42977282 -74.62552426 75.56980345 -71.7598877 72.7088623 C-65.16020138 66.12115917 -58.55548521 59.53850654 -51.95070648 52.95590973 C-45.89165046 46.91709803 -39.83369453 40.87719322 -33.77979422 34.83321238 C-30.48203943 31.54119652 -27.1803973 28.25311021 -23.87805176 24.96569824 C-22.14185959 23.23314071 -20.40580885 21.50044144 -18.66992188 19.76757812 C-17.50389687 18.6093026 -17.50389687 18.6093026 -16.3143158 17.42762756 C-12.21420411 13.327911 -8.28467649 9.14500404 -4.51941681 4.73473358 C-3.07368284 3.08412445 -1.56956052 1.53238844 0 0 Z " fill="#02101B" transform="translate(599,525)"/>
<path d="M0 0 C2.31407115 1.21303218 4.59052372 2.43759794 6.83349609 3.77758789 C7.67162842 4.27564941 8.50976074 4.77371094 9.37329102 5.28686523 C10.27539307 5.82778809 11.17749512 6.36871094 12.10693359 6.92602539 C14.07431844 8.09800628 16.04176948 9.26987604 18.00927734 10.44165039 C19.05325684 11.06491211 20.09723633 11.68817383 21.17285156 12.33032227 C24.62608544 14.38687412 28.08610165 16.43156475 31.54833984 18.47290039 C33.33827164 19.52931088 35.12810365 20.58589021 36.91790771 21.64251709 C38.6211904 22.64755893 40.32523274 23.65131299 42.02929688 24.6550293 C45.18856813 26.5234053 48.33719479 28.40830781 51.48193359 30.30102539 C53.0880249 31.25477051 53.0880249 31.25477051 54.7265625 32.2277832 C56.23935791 33.14962402 56.23935791 33.14962402 57.78271484 34.09008789 C59.1407019 34.90920654 59.1407019 34.90920654 60.52612305 35.74487305 C61.17154053 36.25840332 61.81695801 36.77193359 62.48193359 37.30102539 C62.48193359 40.30102539 62.48193359 40.30102539 60.53369808 42.61561108 C59.61362248 43.53162248 58.69354689 44.44763388 57.74559021 45.3914032 C57.23600157 45.90284954 56.72641294 46.41429589 56.20138222 46.94124061 C54.48350595 48.66172677 52.75510332 50.37123874 51.02661133 52.08105469 C49.79595482 53.30922899 48.56596444 54.5380711 47.33659363 55.76753235 C44.68250328 58.41891166 42.02370814 61.06544971 39.36120415 63.70837975 C35.14712003 67.89149071 30.94338944 72.08490267 26.74098206 76.27973938 C20.08626139 82.91994935 13.42436293 89.55290636 6.75951964 96.18295461 C-5.15635305 108.03706031 -17.06027718 119.90315838 -28.96129459 131.77217609 C-33.13611123 135.93519554 -37.31408854 140.0950092 -41.49477112 144.25213754 C-44.10459822 146.84806745 -46.71238413 149.44604118 -49.31973076 152.0444622 C-50.52368407 153.24337597 -51.72851776 154.44140646 -52.93432617 155.63845444 C-60.64008923 163.28916606 -68.00155689 170.9413892 -74.55448824 179.61765546 C-123.29557646 244.0949782 -123.29557646 244.0949782 -160.42295837 250.35767937 C-186.7847302 254.00307224 -213.75638855 252.38742285 -240.21179676 250.64108956 C-252.38072406 249.85451979 -264.55154168 249.52637704 -276.74031734 249.2149061 C-294.69492846 248.7418422 -312.64424487 248.11414154 -330.5744381 247.05228615 C-332.48694165 246.94012908 -334.39978937 246.83367088 -336.31295204 246.73338318 C-338.92469212 246.59385557 -341.53382148 246.43064716 -344.14367676 246.2598114 C-344.89584646 246.22303227 -345.64801616 246.18625313 -346.42297888 246.14835948 C-351.74242717 245.75797281 -355.09369768 244.30944579 -359.51806641 241.30102539 C-363.71452308 236.13615564 -364.15135431 231.69111207 -363.89697266 225.10180664 C-363.07520597 219.02751065 -359.29880106 215.8364056 -354.80493164 212.02758789 C-350.52483563 208.79615424 -345.84787449 206.21140988 -341.19699097 203.55502319 C-337.95900309 201.70479735 -334.73545691 199.82966864 -331.51025391 197.95727539 C-330.84704636 197.57298874 -330.18383881 197.18870209 -329.50053406 196.79277039 C-322.59585087 192.78369584 -315.77069279 188.64747219 -308.95556641 184.48852539 C-307.77371049 183.76801909 -306.59182589 183.04755983 -305.40991211 182.32714844 C-303.14750012 180.94803768 -300.88523407 179.56868854 -298.62304688 178.18920898 C-294.2665461 175.53995777 -289.89412374 172.91780467 -285.51806641 170.30102539 C-277.60135015 165.56444438 -269.71314953 160.78161353 -261.83056641 155.98852539 C-251.88727626 149.94251077 -241.92253105 143.93396416 -231.9375 137.95703125 C-224.83985666 133.70458798 -217.76483693 129.41593994 -210.69818115 125.11227417 C-209.83558685 124.58695602 -209.83558685 124.58695602 -208.95556641 124.05102539 C-208.09200531 123.525103 -208.09200531 123.525103 -207.21099854 122.98855591 C-196.96892131 116.7547204 -186.6642057 110.63046872 -176.34420776 104.5267334 C-167.34782039 99.20288659 -158.40484604 93.80651399 -149.51806641 88.30102539 C-139.95654023 82.37752155 -130.32364812 76.5896098 -120.64306641 70.86352539 C-100.33247974 58.84666562 -80.18546795 46.57542446 -60.10131836 34.18359375 C-51.68953484 29.00184293 -43.23747412 23.89005321 -34.74487305 18.84179688 C-29.45377445 15.69140069 -24.20825937 12.48824037 -19.01416016 9.17993164 C-17.96510498 8.51880371 -16.9160498 7.85767578 -15.83520508 7.17651367 C-13.83488722 5.91260193 -11.84360792 4.63423611 -9.86303711 3.33959961 C-8.97060303 2.77901855 -8.07816895 2.2184375 -7.15869141 1.64086914 C-5.99128418 0.88858032 -5.99128418 0.88858032 -4.80029297 0.12109375 C-2.51806641 -0.69897461 -2.51806641 -0.69897461 0 0 Z " fill="#020F1B" transform="translate(513.51806640625,472.698974609375)"/>
<path d="M0 0 C1.20970459 0.00523682 2.41940918 0.01047363 3.66577148 0.01586914 C4.97094727 0.0190918 6.27612305 0.02231445 7.62084961 0.02563477 C9.00952213 0.03399138 10.39819401 0.04245634 11.78686523 0.05102539 C13.17944179 0.05603873 14.57202005 0.06060193 15.96459961 0.06469727 C19.38456602 0.07653106 22.80443753 0.0938533 26.22436523 0.11352539 C29.54148312 7.9244473 32.6554936 15.78020716 35.56811523 23.75024414 C36.17177414 25.39202385 36.17177414 25.39202385 36.78762817 27.06697083 C38.10229467 30.64410524 39.41336263 34.22254674 40.72436523 37.80102539 C41.64517061 40.30893229 42.56618048 42.81676288 43.48754883 45.32446289 C44.92399367 49.23445094 46.3602237 53.14451703 47.79525757 57.05502319 C50.99943733 65.78567952 54.21340886 74.51267561 57.43492889 83.23694801 C58.16423974 85.21207938 58.89334371 87.18728698 59.62237549 89.16252136 C59.85957935 89.80518731 60.09678322 90.44785326 60.34117508 91.10999393 C60.81462306 92.39272564 61.28807023 93.67545765 61.76151657 94.95818996 C62.91415868 98.08085293 64.06733162 101.20331763 65.22119141 104.32553101 C66.50740647 107.80646649 67.79185375 111.28804963 69.07592773 114.76977539 C69.45314972 115.78924759 69.8303717 116.80871979 70.21902466 117.85908508 C70.57221771 118.81767929 70.92541077 119.7762735 71.28930664 120.76391602 C71.74389755 121.99495056 71.74389755 121.99495056 72.20767212 123.25085449 C73.60485597 127.18486121 74.90419359 131.15301047 76.22436523 135.11352539 C66.32436523 135.11352539 56.42436523 135.11352539 46.22436523 135.11352539 C44.73936523 130.55540039 43.25436523 125.99727539 41.72436523 121.30102539 C41.25450195 119.86654053 40.78463867 118.43205566 40.30053711 116.95410156 C39.75236328 115.25991089 39.75236328 115.25991089 39.19311523 113.53149414 C38.81606445 112.37415771 38.43901367 111.21682129 38.05053711 110.02441406 C37.22436523 107.11352539 37.22436523 107.11352539 37.22436523 104.11352539 C11.97936523 104.60852539 11.97936523 104.60852539 -13.77563477 105.11352539 C-17.07563477 115.01352539 -20.37563477 124.91352539 -23.77563477 135.11352539 C-33.01563477 135.11352539 -42.25563477 135.11352539 -51.77563477 135.11352539 C-51.12095177 131.18542741 -50.63904329 128.33257905 -49.3112793 124.75952148 C-49.01158234 123.94481384 -48.71188538 123.1301062 -48.40310669 122.29071045 C-48.07486908 121.41497375 -47.74663147 120.53923706 -47.40844727 119.63696289 C-47.06192108 118.69902893 -46.7153949 117.76109497 -46.35836792 116.79473877 C-45.21056181 113.69087751 -44.05550764 110.58976341 -42.90063477 107.48852539 C-41.67759294 104.18600172 -40.45645377 100.88277803 -39.23529053 97.57955933 C-38.38505564 95.28027217 -37.53417392 92.9812241 -36.68267822 90.68240356 C-32.41613362 79.16069088 -28.20205654 67.6200341 -23.99328613 56.07711792 C-18.56266435 41.18727851 -13.12971673 26.29811311 -7.65063477 11.42602539 C-7.25489258 10.34595215 -6.85915039 9.26587891 -6.45141602 8.15307617 C-6.10208008 7.20803223 -5.75274414 6.26298828 -5.39282227 5.28930664 C-5.10004395 4.49435791 -4.80726563 3.69940918 -4.50561523 2.88037109 C-3.34013813 0.05944874 -3.21993153 0.13169744 0 0 Z " fill="#FAFAFA" transform="translate(752.775634765625,339.886474609375)"/>
<path d="M0 0 C0.33 0 0.66 0 1 0 C1.09796875 1.01835938 1.1959375 2.03671875 1.296875 3.0859375 C5.75239127 46.56491366 26.88407264 87.07494529 60.77099609 115.05078125 C88.12549448 136.99000051 120.92079176 150.41047338 156 152 C156 152.33 156 152.66 156 153 C104.52 153 53.04 153 0 153 C0 102.51 0 52.02 0 0 Z " fill="#FAFBFA" transform="translate(0,871)"/>
<path d="M0 0 C0.33 0 0.66 0 1 0 C1 49.83 1 99.66 1 151 C-48.5 151 -98 151 -149 151 C-149 150.67 -149 150.34 -149 150 C-147.89527344 149.86464844 -146.79054688 149.72929688 -145.65234375 149.58984375 C-108.15153935 144.574464 -75.22051853 128.01239565 -48 102 C-47.18402344 101.22527344 -46.36804688 100.45054687 -45.52734375 99.65234375 C-27.08992377 81.720925 -15.0880559 59.16199147 -7 35 C-6.5978125 33.81792969 -6.195625 32.63585937 -5.78125 31.41796875 C-2.5740082 21.17666255 -1.3191434 10.6169767 0 0 Z " fill="#FAFBFA" transform="translate(1023,873)"/>
<path d="M0 0 C51.15 0 102.3 0 155 0 C155 0.33 155 0.66 155 1 C154.02804688 1.08636719 153.05609375 1.17273438 152.0546875 1.26171875 C106.94933442 5.68719158 66.6843898 26.26540307 37.30566406 61.00341797 C30.56668509 69.40694601 25.03010801 78.49214968 20 88 C19.66371582 88.62487305 19.32743164 89.24974609 18.98095703 89.89355469 C9.15543747 108.25236953 2.3483579 128.10045261 1 149 C0.67 149 0.34 149 0 149 C0 99.83 0 50.66 0 0 Z " fill="#FBFCFB" transform="translate(0,0)"/>
<path d="M0 0 C51.15 0 102.3 0 155 0 C155 47.52 155 95.04 155 144 C154.67 144 154.34 144 154 144 C153.87471924 143.38181396 153.74943848 142.76362793 153.62036133 142.12670898 C144.21751434 96.17855649 122.05260342 55.41532733 82.28417969 28.85400391 C57.60764265 12.77935457 29.50983544 2.31862131 0 1 C0 0.67 0 0.34 0 0 Z " fill="#FAFBFA" transform="translate(869,0)"/>
<path d="M0 0 C8.91 0 17.82 0 27 0 C27 44.55 27 89.1 27 135 C18.09 135 9.18 135 0 135 C0 90.45 0 45.9 0 0 Z " fill="#FBFBFB" transform="translate(844,340)"/>
<path d="M0 0 C0.66 0 1.32 0 2 0 C2.26627197 0.82910889 2.53254395 1.65821777 2.80688477 2.51245117 C3.82887087 5.6927699 4.85169731 8.87281531 5.87530518 12.0526123 C6.33231591 13.47239393 6.78914461 14.89223416 7.24578857 16.31213379 C10.42149396 26.18286756 13.63908728 36.03697843 17.01782227 45.84057617 C19 51.67615084 19 51.67615084 19 55 C7.45 55 -4.1 55 -16 55 C-14.87505381 46.0004305 -14.87505381 46.0004305 -13.83251953 42.85400391 C-13.48678391 41.79217392 -13.48678391 41.79217392 -13.13406372 40.70889282 C-12.88615082 39.97222382 -12.63823792 39.23555481 -12.3828125 38.4765625 C-12.12498993 37.69034515 -11.86716736 36.90412781 -11.60153198 36.09408569 C-10.78286953 33.60207039 -9.95433285 31.11348213 -9.125 28.625 C-8.30656444 26.14793926 -7.49020809 23.67020135 -6.67425537 21.19232178 C-6.15184393 19.60599107 -5.62862634 18.01992559 -5.10455322 16.43414307 C-3.30721633 10.98259752 -1.60522732 5.51165464 0 0 Z " fill="#091821" transform="translate(763,367)"/>
</svg>
